HIERARCHY
ROOT Hips
{
  OFFSET 0 0 0
  CHANNELS 6 Xposition Yposition Zposition Zrotation Xrotation Yrotation
  JOINT Spine
  {
    OFFSET 0.00000000 0.00000000 0.00000000
    CHANNELS 3 Zrotation Xrotation Yrotation
    JOINT Spine1
    {
      OFFSET 0.19000000 0.00000000 0.00000000
      CHANNELS 3 Zrotation Xrotation Yrotation
      JOINT Neck
      {
        OFFSET 0.22500000 0.00600000 0.00000000
        CHANNELS 3 Zrotation Xrotation Yrotation
        JOINT Head
        {
          OFFSET 0.14000000 0.00030878 0.00000000
          CHANNELS 3 Zrotation Xrotation Yrotation
          End Site
          {
            OFFSET 0.17000000 0.00000000 0.00000000
          }
        }
      }
      JOINT LeftShoulder
      {
        OFFSET 0.19800000 0.03700000 0.04300000
        CHANNELS 3 Zrotation Xrotation Yrotation
        JOINT LeftArm
        {
          OFFSET 0.08000000 0.00000000 0.00000000
          CHANNELS 3 Zrotation Xrotation Yrotation
          JOINT LeftForeArm
          {
            OFFSET 0.15200000 0.00000000 0.00000000
            CHANNELS 3 Zrotation Xrotation Yrotation
            JOINT LeftHand
            {
              OFFSET 0.17800000 0.00000000 0.00000000
              CHANNELS 3 Zrotation Xrotation Yrotation
              End Site
              {
                OFFSET 0.07200000 0.00000000 0.00000000
              }
            }
          }
        }
      }
      JOINT RightShoulder
      {
        OFFSET 0.19800000 0.03700000 -0.04300000
        CHANNELS 3 Zrotation Xrotation Yrotation
        JOINT RightArm
        {
          OFFSET 0.08000000 0.00000000 0.00151654
          CHANNELS 3 Zrotation Xrotation Yrotation
          JOINT RightForeArm
          {
            OFFSET 0.15200000 0.00000000 0.00000000
            CHANNELS 3 Zrotation Xrotation Yrotation
            JOINT RightHand
            {
              OFFSET 0.17800000 0.00000000 0.00000000
              CHANNELS 3 Zrotation Xrotation Yrotation
              End Site
              {
                OFFSET 0.07200000 0.00000000 0.00000000
              }
            }
          }
        }
      }
    }
  }
  JOINT LeftUpLeg
  {
    OFFSET 0.05984250 -0.07666000 0.04788790
    CHANNELS 3 Zrotation Xrotation Yrotation
    JOINT LeftLeg
    {
      OFFSET 0.16000000 0.00000000 0.00000000
      CHANNELS 3 Zrotation Xrotation Yrotation
      JOINT LeftFoot
      {
        OFFSET 0.18000000 0.00000000 0.00000000
        CHANNELS 3 Zrotation Xrotation Yrotation
        End Site
        {
          OFFSET 0.00000000 -0.10800000 0.00000000
        }
      }
    }
  }
  JOINT RightUpLeg
  {
    OFFSET 0.05984250 -0.07665980 -0.04788790
    CHANNELS 3 Zrotation Xrotation Yrotation
    JOINT RightLeg
    {
      OFFSET 0.16000000 0.00000000 0.00000000
      CHANNELS 3 Zrotation Xrotation Yrotation
      JOINT RightFoot
      {
        OFFSET 0.18000000 0.00000000 0.00000000
        CHANNELS 3 Zrotation Xrotation Yrotation
        End Site
        {
          OFFSET 0.00000000 -0.10800000 0.00000000
        }
      }
    }
  }
  JOINT Tail
  {
    OFFSET 0.06836960 -0.00722574 0.00000000
    CHANNELS 3 Zrotation Xrotation Yrotation
    JOINT Tail1
    {
      OFFSET 0.12000000 0.00000000 0.00000000
      CHANNELS 3 Zrotation Xrotation Yrotation
      End Site
      {
        OFFSET 0.12000000 0.00000000 0.00000000
      }
    }
  }
}
MOTION
Frames:	20
Frame Time:	0.0166667
-3.9235156 0.4635350 -0.6753825 -3.71475 2.06672 -2.47226 -164.764 3.80313 12.4615 -11.6266 2.32535 -4.71162 -1.52773 -5.32171 2.12685 -83.0912 82.5205 99.3985 -107.6 -28.2051 -149.349 122.653 -40.0533 -135.855 -62.0542 15.4522 1.02871 -23.4715 4.20925 -16.9986 72.6697 -34.0812 45.0759 49.4233 -15.4843 -41.8667 -92.074 5.21325 -13.0879 13.7028 1.38056 -21.8437 -108.902 -4.19939 -13.1961 72.9799 24.4649 7.04184 43.8092 -5.38893 -9.0055 -141.897 1.36792 4.3741 75.3042 -6.186 -6.94496 45.9105 0.300069 -1.3948 0.404435 4.93429 -26.4585 9.4602 -5.2787 -11.5061 
-3.9405694 0.4654260 -0.6798337 -4.35947 2.25896 -4.02706 -165.204 3.7715 13.0557 -9.85608 3.11159 -8.18988 -0.526688 -5.89591 3.43128 -82.612 82.2667 97.8944 -106.663 -26.643 -150.752 123.434 -39.4225 -137.641 -59.2594 15.4478 0.675272 -23.3673 3.92494 -16.0829 72.8418 -34.3892 46.2099 46.2124 -11.359 -44.5599 -86.0452 -3.90279 -12.0158 3.57021 3.14313 -15.0875 -105.363 -4.96785 -13.2484 71.7214 23.0155 7.00464 46.1904 -5.12826 -8.5603 -141.036 0.699294 3.83763 67.7467 -10.0771 -7.39753 51.8501 1.45804 -0.603308 1.73998 2.79967 -20.3237 9.33582 -4.28863 -8.89622 
-3.9576849 0.4675640 -0.6848521 -4.92266 1.95648 -5.79129 -165.716 3.29812 12.9492 -7.95117 3.33835 -11.0918 -0.404727 -6.40787 4.87573 -82.0798 82.0944 96.7959 -105.919 -25.4605 -151.809 124.067 -38.8284 -138.792 -56.6837 15.7745 0.00428961 -22.5788 3.31414 -14.5145 72.5331 -35.2329 46.9558 42.3369 -10.0571 -47.8489 -79.0607 -4.82096 -8.55112 -0.515287 1.46315 -3.34699 -101.838 -6.23051 -12.5734 69.8766 21.7391 6.97483 49.1192 -4.86253 -8.06377 -139.648 0.987445 3.87618 61.7392 -11.0702 -8.03578 58.2057 2.32501 -0.295831 2.77159 1.95272 -13.8824 8.9595 -3.34596 -5.75856 
-3.9744771 0.4700290 -0.6910907 -5.46688 1.24666 -7.62375 -166.305 2.58548 12.0993 -5.97362 3.16838 -13.1157 -0.884137 -7.05736 6.26838 -81.3642 81.7211 96.0479 -105.242 -24.4372 -152.691 125.996 -38.2896 -138.636 -53.2323 15.0152 -0.989103 -21.47 3.48986 -15.0117 72.3444 -35.8599 47.6051 41.9068 -5.71286 -50.5836 -75.4096 -7.85266 -7.44134 -3.95539 1.43581 -2.42206 -98.3236 -7.82857 -11.5309 67.3434 20.1656 7.11604 52.6622 -4.55411 -7.5031 -137.062 1.25056 3.62622 57.5935 -9.81217 -8.0184 61.6965 2.71185 -0.290761 3.42684 2.21249 -7.58486 8.65119 -2.68294 -2.42274 
-3.9915570 0.4717210 -0.6986475 -5.81690 0.11111 -9.19593 -167.42 1.65587 11.2701 -3.70822 2.63339 -14.8331 -1.79005 -7.51883 7.57392 -81.7938 81.3856 96.3281 -104.648 -23.6718 -153.067 127.099 -37.4547 -138.406 -50.2999 15.4023 -2.16484 -20.0727 2.72249 -12.9289 72.2971 -36.3801 48.4365 42.9173 -0.319748 -52.3602 -68.0824 -14.7768 -5.73703 -5.18074 3.0535 -9.59362 -95.6827 -9.43208 -10.7029 65.1908 19.2637 7.5421 56.4574 -4.38604 -7.12218 -133.622 0.976468 2.38065 55.3431 -6.59043 -6.35932 62.6566 2.3337 -0.735489 3.19091 3.66743 -1.84149 8.41856 -2.64302 1.30748 
-4.0082611 0.4707490 -0.7061332 -6.10058 -1.24815 -10.3538 -168.835 0.752542 10.5547 -1.66121 1.96075 -15.9962 -2.73477 -7.85789 8.62071 -81.5432 81.2654 96.1948 -104.067 -23.038 -153.031 128.459 -37.2981 -137.833 -47.2767 15.7407 -3.26048 -18.4042 2.07538 -11.1719 72.6027 -36.6114 49.7233 43.079 -3.49048 -53.4878 -63.7533 -11.3408 -0.247753 -1.19634 0.914486 -3.46268 -95.1832 -10.5418 -9.81972 66.5446 18.982 7.24033 59.0873 -4.2803 -6.88247 -131.684 0.726586 1.44119 59.3074 -5.71576 -5.08567 55.2889 1.7464 -0.714052 1.83081 6.25662 3.09125 8.52618 -3.70627 5.2727 
-4.0259656 0.4675490 -0.7128696 -6.32575 -2.45583 -11.0893 -170.269 -0.016036 10.1623 0.124942 1.29156 -16.8722 -3.82537 -7.98479 9.22506 -82.3943 81.0809 97.2437 -103.853 -22.928 -152.561 129.406 -37.8312 -137.039 -44.4271 15.896 -4.12956 -16.4041 1.31249 -8.99116 72.752 -36.801 50.4864 38.8076 -9.4171 -52.1385 -59.2036 -12.0282 3.01971 -2.26846 0.366694 -0.623838 -97.5687 -10.836 -9.05189 72.2949 16.4713 5.88165 60.0256 -3.97725 -6.57203 -131.678 0.356267 1.27899 65.0803 -4.8894 -4.51794 49.6758 1.21587 -0.861503 -0.736386 9.52927 7.40223 9.12653 -6.10178 9.24356 
-4.0447696 0.4636430 -0.7190332 -6.54958 -3.26045 -11.6730 -171.065 -0.632149 9.44932 1.16443 0.685582 -16.7881 -5.20823 -7.82087 9.08348 -83.2914 80.9168 99.2565 -103.951 -23.3146 -151.549 129.863 -39.364 -136.416 -42.8227 15.64 -4.44109 -13.2063 0.323223 -5.90177 72.7014 -37.1125 50.8915 35.7906 -16.4365 -49.3392 -61.1606 -15.4839 -0.336568 -10.1037 0.471757 2.24976 -101.354 -10.5924 -8.25905 78.1974 11.05 4.25642 61.9694 -3.4046 -5.99667 -131.046 -0.0272196 1.58534 68.7071 -4.21716 -4.312 46.9947 0.735386 -1.12526 -4.56156 13.1727 11.4952 10.2613 -9.97025 13.0507 
-4.0629908 0.4621740 -0.7246654 -7.09859 -3.42155 -12.1888 -170.015 -0.908492 8.48182 0.487041 0.46438 -16.0878 -6.19281 -7.74652 8.71404 -84.5869 80.5666 101.13 -104.401 -24.1503 -150.424 128.258 -40.5375 -135.529 -43.9046 11.9835 -4.86853 -7.01528 -0.354932 -1.88587 73.1292 -36.6811 51.3522 35.1931 -21.1216 -49.7031 -62.648 -18.7837 -0.231421 -12.6936 0.633399 2.35078 -105.307 -9.86046 -8.09094 82.9749 8.98874 3.07192 60.8568 -3.08737 -5.65576 -129.888 -0.0119083 2.28058 73.0877 -5.30365 -4.54151 44.3786 0.663943 -1.02972 -9.27146 16.8787 15.2343 11.5694 -15.3564 16.5605 
-4.0815743 0.4620500 -0.7299720 -7.20590 -3.22703 -12.9764 -168.611 -1.03651 6.9425 -1.13972 0.546551 -14.9745 -6.90206 -7.67711 8.08261 -86.581 79.9319 103.511 -105.393 -25.5503 -149.604 122.218 -38.9115 -135.132 -49.7152 0.763606 -4.941 6.28616 0.467206 2.78293 73.2757 -35.8393 50.2659 36.7414 -26.2647 -49.6706 -65.9558 -13.507 0.952058 -8.22387 -0.819103 7.22711 -109.813 -8.83138 -8.0273 87.5416 11.5307 2.07538 54.736 -3.07036 -5.57335 -128.074 0.430264 2.99204 75.1242 -6.7734 -4.91181 43.3592 0.847662 -0.76544 -15.1356 20.1696 18.7912 12.3316 -21.7413 19.4888 
-4.1006771 0.4622840 -0.7345127 -6.71498 -2.69237 -14.2590 -167.337 -1.12762 4.58164 -3.29628 0.808512 -13.3308 -7.36608 -7.51594 7.10332 -89.4387 79.0454 106.369 -106.456 -27.1308 -148.59 117.09 -35.3706 -135.848 -57.0222 -30.165 -0.0364073 26.4823 2.4883 -13.9205 73.4981 -34.7264 48.8394 39.119 -29.9257 -48.6712 -68.719 -16.895 0.338397 -11.4983 -0.738591 7.34004 -115.524 -7.657 -8.48176 92.5875 15.2135 1.43261 47.6265 -3.22055 -5.71081 -126.385 1.09894 3.45002 76.2382 -8.52581 -5.33108 42.9393 1.20386 -0.352703 -21.9004 22.4482 22.6812 12.655 -28.511 21.4118 
-4.1204345 0.4619760 -0.7385025 -5.90000 -1.89110 -16.0591 -166.457 -1.38624 1.58997 -5.34995 0.991161 -11.5245 -7.64562 -7.33622 6.14798 -91.7246 78.344 108.458 -107.566 -29.0791 -146.857 117.302 -36.2211 -134.953 -60.1899 -53.0002 5.01172 33.0483 0.0335151 -33.9647 73.8129 -33.5196 47.4198 42.1411 -33.2019 -48.3723 -71.0786 -18.0287 0.43478 -12.7608 -0.882761 7.88146 -121.751 -6.57377 -9.25071 96.4242 16.3177 1.11364 43.2678 -3.1525 -5.61325 -124.916 1.49615 3.27327 77.0811 -9.83843 -5.46064 43.0589 1.54558 -0.0122948 -28.1712 23.1221 26.6362 12.3068 -34.3458 21.6961 
-4.1401284 0.4609660 -0.7423392 -5.13472 -0.90793 -18.2317 -165.516 -1.88413 -1.80682 -7.66454 1.05757 -9.82993 -7.15155 -7.4702 6.08948 -91.9373 78.4722 107.973 -108.837 -31.35 -145.048 120.386 -38.7215 -134.217 -50.0566 -74.309 21.8222 30.81 -1.82251 -54.8441 74.5848 -31.6602 45.9716 44.59 -36.6168 -47.0467 -73.7549 -18.1001 0.0107842 -13.305 -1.09036 8.67554 -127.571 -5.71858 -10.2327 98.477 15.0604 1.09927 39.6431 -2.88899 -5.26475 -123.328 1.30206 2.57441 78.1765 -11.0163 -5.2224 43.0108 1.78358 0.24114 -32.7137 22.2763 30.0545 10.7414 -38.586 20.5508 
-4.1592001 0.4606770 -0.7460256 -4.59876 0.32700 -20.6086 -164.499 -2.54383 -5.88492 -9.78982 0.926457 -7.51596 -6.29897 -7.35201 5.91921 -92.7581 78.7832 107.985 -110.05 -33.6454 -143.257 121.283 -38.7027 -134.755 32.613 -79.317 112.926 24.673 0.250789 -67.9531 74.9994 -30.2548 44.1742 47.0896 -39.8729 -44.6842 -75.6725 -17.6243 -0.725953 -13.4376 -1.19582 9.0916 -132.182 -4.96153 -11.8223 97.6423 15.4106 1.72996 35.8657 -2.78691 -5.10621 -120.839 0.977237 1.45849 78.3195 -11.9173 -4.75027 43.1869 1.93607 0.423786 -34.9422 20.1821 32.6582 8.22552 -40.7695 18.1808 
-4.1780184 0.4604730 -0.7500031 -4.09048 1.31694 -22.5744 -164.214 -3.35387 -9.42609 -10.9399 0.486008 -5.5767 -5.73854 -6.96207 6.1047 -94.7405 78.9812 109.471 -111.186 -36.074 -141.214 121.339 -35.5347 -134.551 49.5466 -69.0604 138.199 16.3926 5.51545 -72.9086 75.4194 -28.9192 42.3957 48.859 -42.3545 -42.8548 -76.0733 -18.5453 -0.871863 -14.5529 -1.27493 9.26702 -136.636 -4.13883 -13.1215 95.2265 13.8525 2.48339 35.573 -2.57927 -4.78903 -118.259 0.513474 0.874234 78.1699 -13.7016 -4.48734 43.1794 2.31186 0.861988 -35.6095 18.1103 34.025 5.28441 -41.3316 15.3166 
-4.1962847 0.4606880 -0.7545710 -3.85495 2.03929 -24.0331 -164.06 -4.37888 -12.5202 -11.7407 -0.346162 -3.62109 -5.41531 -6.12462 6.1068 -98.6874 78.6663 113.316 -111.899 -38.2576 -138.816 123.202 -30.7637 -132.446 38.5051 -67.1749 134.849 17.5538 4.87209 -68.3518 75.5219 -27.7345 39.6655 51.2259 -43.852 -40.563 -76.0149 -19.1084 -0.943653 -15.269 -1.23166 9.08441 -140.01 -3.27444 -14.3515 90.8098 12.8454 3.65867 37.2111 -2.47976 -4.6449 -115.482 -0.140416 0.188753 77.947 -14.1732 -3.93207 43.6769 2.55743 1.04834 -34.6036 16.3691 34.1891 2.43936 -40.2236 12.4707 
-4.2144105 0.4609190 -0.7594305 -3.69856 2.31455 -24.7262 -164.463 -5.1124 -15.2048 -11.9465 -1.19996 -1.2938 -4.93227 -5.24622 5.89937 -102.388 78.0841 117.059 -112.591 -39.8115 -137.691 125.146 -24.3129 -130.075 15.1478 -70.9061 117.545 21.6309 2.53757 -58.7565 76.1985 -26.1333 37.6996 53.4844 -44.4087 -38.0306 -75.1012 -18.8031 -1.3233 -16.2234 -1.16208 8.66181 -142.16 -2.35133 -15.0086 84.4671 12.7091 5.16194 39.6219 -2.56878 -4.80181 -112.532 -0.420401 0.224173 77.1733 -14.3493 -3.68695 44.3002 2.66558 1.08874 -32.993 15.5192 33.1063 0.138939 -38.4563 10.3938 
-4.2327139 0.4608470 -0.7644607 -3.63828 2.35378 -24.6525 -165.238 -5.68346 -17.5622 -11.6844 -2.26063 1.74895 -4.32328 -4.30622 5.68716 -105.387 78.5546 119.517 -112.887 -40.8116 -136.66 125.973 -18.1963 -128.389 -25.5261 -72.4517 81.0224 24.5213 1.46361 -45.5681 77.2682 -24.0231 35.434 54.8531 -44.3863 -34.7027 -73.6048 -18.074 -2.09089 -17.1144 -0.915985 7.78751 -143.52 -1.54734 -15.4971 77.133 13.8303 7.14681 43.435 -2.90707 -5.28219 -109.646 -0.594108 0.200194 76.5062 -14.3557 -3.49996 45.369 2.77278 1.05804 -30.9011 15.3654 30.7991 -1.22291 -36.1105 8.91003 
-4.2514856 0.4606140 -0.7694914 -3.59066 2.45119 -23.8132 -166.404 -5.86979 -19.0973 -10.4809 -3.15928 4.80466 -4.36427 -3.4776 4.94628 -108.107 77.9203 122.287 -113.159 -41.9253 -135.428 124.73 -13.4006 -126.79 -68.2343 -61.6256 40.2909 22.4524 2.12328 -26.5117 78.4087 -22.0337 33.4629 55.5258 -44.1932 -31.9921 -71.3925 -18.6047 -2.52002 -19.0792 -0.683375 7.0973 -143.712 -1.23003 -15.9696 68.9107 16.3298 9.65857 48.223 -3.51092 -5.98164 -106.494 -0.534822 -0.317307 75.4538 -13.4052 -3.23338 46.6485 2.7004 0.805288 -28.5697 15.6533 27.1861 -1.70256 -33.6419 8.01044 
-4.2706512 0.4606650 -0.7739704 -3.61956 2.84824 -22.3634 -167.461 -5.5801 -19.9993 -8.74257 -3.69727 8.21173 -5.30612 -2.79713 3.94736 -109.525 78.2224 123.874 -113.301 -42.8873 -134.2 122.897 -8.78427 -125.204 -82.8611 -39.2057 24.6107 7.96524 1.90054 -10.5832 79.3587 -20.4523 31.7839 55.2456 -44.1667 -30.2636 -68.6962 -17.6345 -2.25677 -19.2744 -0.90549 7.52596 -143.026 -1.67516 -16.7068 61.1906 19.0323 12.6093 53.9829 -4.19434 -6.59306 -102.943 0.140826 -1.06933 73.6992 -12.4212 -3.20184 48.7826 2.65817 0.530409 -25.9748 15.9962 22.5642 -1.47627 -31.1491 7.32661 
